<?xml version="1.0" encoding="utf-8"?>
<!-- Generator: Adobe Illustrator 24.0.2, SVG Export Plug-In . SVG Version: 6.00 Build 0)  -->
<svg version="1.1" id="Layer_1" xmlns="http://www.w3.org/2000/svg" xmlns:xlink="http://www.w3.org/1999/xlink" x="0px" y="0px"
	 viewBox="0 0 139.2 175.2" style="enable-background:new 0 0 139.2 175.2;" xml:space="preserve">
<style type="text/css">
	.st0{fill:none;stroke:#231F20;stroke-width:6;stroke-miterlimit:10;}
	.st1{fill:none;stroke:#231F20;stroke-width:5;stroke-miterlimit:10;}
	.st2{fill:none;stroke:#231F20;stroke-width:6;stroke-linecap:round;stroke-miterlimit:10;}
</style>
<title>podscription</title>
<g>
	<path class="st0" d="M63.5,33.4h33.3c7.4,0,13.4,6,13.4,13.4v24.7"/>
	<path class="st0" d="M110.2,106.3v53c0,7.4-6,13.4-13.4,13.4H15.9c-7.4,0-13.4-6-13.4-13.4V46.8c0-7.4,6-13.4,13.4-13.4h18.4"/>
	<path class="st1" d="M59.6,31.2c-9.1-6.1-21.4-3.8-27.5,5.3c-6.1,9.1-3.8,21.4,5.3,27.5"/>
	<path class="st1" d="M47.3,46.9c7-10.4,14.1-17.9,15.8-16.7S60.5,40.6,53.4,51S39.4,68.9,37.7,67.7C36,66.6,40.3,57.2,47.3,46.9z"
		/>
	<path class="st1" d="M115.8,10.2C90.8-6.7,53.3,5.1,32,36.5"/>
	<path class="st1" d="M117.2,70.3c9.2,6,11.7,18.3,5.7,27.4s-18.3,11.7-27.4,5.7c-0.2-0.1-0.4-0.2-0.5-0.4"/>
	<path class="st1" d="M101.1,83.3c7-10.4,14.1-17.9,15.8-16.7c1.7,1.1-2.6,10.5-9.6,20.9s-14.1,17.9-15.8,16.7S94.1,93.7,101.1,83.3
		z"/>
	<path class="st1" d="M122.6,97.8c21.3-31.4,18.3-70.6-6.7-87.5"/>
	<path class="st1" d="M115.8,10.2C90.8-6.7,53.3,5.1,32,36.5"/>
	<path class="st1" d="M122.6,97.8c21.3-31.4,18.3-70.6-6.7-87.5"/>
	<line class="st2" x1="61.1" y1="58.2" x2="91.9" y2="58.2"/>
	<line class="st2" x1="20.8" y1="88.7" x2="91.9" y2="88.7"/>
	<line class="st2" x1="20.8" y1="119.2" x2="91.9" y2="119.2"/>
	<line class="st2" x1="20.8" y1="149.7" x2="64.5" y2="149.7"/>
</g>
</svg>
